<?xml version="1.0" standalone="no"?>
<!DOCTYPE svg PUBLIC "-//W3C//DTD SVG 20010904//EN"
 "http://www.w3.org/TR/2001/REC-SVG-20010904/DTD/svg10.dtd">
<svg version="1.0" xmlns="http://www.w3.org/2000/svg"
 width="512.000000pt" height="512.000000pt" viewBox="0 0 512.000000 512.000000"
 preserveAspectRatio="xMidYMid meet">

<g transform="translate(0.000000,512.000000) scale(0.100000,-0.100000)"
fill="#000000" stroke="none">
<path d="M898 4330 c-280 -48 -511 -257 -600 -540 -23 -74 -23 -82 -23 -511
l0 -436 27 -35 c69 -90 212 -83 265 14 16 30 18 73 23 448 5 400 6 417 28 470
45 111 141 207 252 253 l55 22 1105 0 1105 0 58 -23 c109 -44 205 -140 249
-250 l23 -57 3 -829 c3 -907 4 -878 -56 -989 -36 -66 -120 -142 -199 -180
l-68 -32 -805 -5 c-790 -5 -806 -5 -840 -26 -52 -30 -82 -88 -77 -147 5 -54
27 -91 77 -124 l33 -23 796 0 c752 0 800 1 876 19 154 37 272 107 383 226 121
129 188 290 200 475 l7 105 410 -223 c226 -124 433 -233 460 -244 77 -31 175
-28 252 7 73 32 143 102 176 173 l22 47 0 920 0 920 -28 57 c-58 118 -174 188
-313 188 -73 0 -78 -2 -207 -69 -73 -38 -276 -148 -452 -244 l-320 -174 -7
106 c-13 203 -84 360 -227 501 -93 92 -183 147 -316 192 l-70 23 -1115 1
c-613 1 -1136 -2 -1162 -6z m3902 -1494 c0 -465 -4 -847 -8 -850 -5 -3 -231
116 -503 264 l-494 268 -3 315 -2 315 337 183 c186 100 406 220 488 265 83 46
158 83 168 84 16 0 17 -47 17 -844z"/>
<path d="M925 3826 c-101 -44 -125 -178 -46 -257 82 -82 215 -53 256 56 50
129 -83 256 -210 201z"/>
<path d="M570 2558 c-72 -50 -75 -58 -78 -274 l-3 -194 -188 0 c-179 0 -190
-1 -221 -22 -55 -38 -75 -73 -75 -133 0 -60 20 -95 75 -132 31 -22 42 -23 221
-23 l188 0 3 -194 c3 -179 5 -197 24 -223 73 -98 195 -98 268 0 19 26 21 44
24 223 l3 194 188 0 c178 0 190 1 222 23 45 29 83 106 75 150 -9 46 -41 94
-78 117 -30 18 -51 20 -220 20 l-187 0 -3 194 c-3 179 -5 197 -24 223 -35 48
-82 73 -134 73 -32 0 -57 -7 -80 -22z"/>
</g>
</svg>
