<?xml version="1.0" standalone="no"?>
<!DOCTYPE svg PUBLIC "-//W3C//DTD SVG 20010904//EN"
 "http://www.w3.org/TR/2001/REC-SVG-20010904/DTD/svg10.dtd">
<svg version="1.0" xmlns="http://www.w3.org/2000/svg"
 width="840.000000pt" height="797.000000pt" viewBox="0 0 840.000000 797.000000"
 preserveAspectRatio="xMidYMid meet">

<g transform="translate(0.000000,797.000000) scale(0.100000,-0.100000)"
fill="#000000" stroke="none">
<path d="M4270 7560 c-350 -28 -772 -139 -1127 -295 -270 -119 -568 -300 -808
-491 -148 -118 -440 -411 -557 -559 -365 -462 -589 -936 -721 -1532 l-33 -148
-370 -6 c-214 -4 -379 -10 -394 -16 -33 -14 -64 -49 -57 -65 12 -31 277 -367
606 -768 251 -305 348 -417 379 -438 40 -26 104 -21 147 12 77 59 925 1149
925 1189 0 29 -13 48 -44 64 -26 14 -76 18 -331 21 -170 2 -308 9 -319 14 -26
14 -18 74 38 268 109 385 300 756 557 1081 206 262 556 568 847 742 364 218
811 371 1207 417 116 13 645 13 755 0 343 -40 735 -162 1045 -324 852 -445
1450 -1238 1630 -2163 50 -253 69 -615 46 -873 -78 -880 -519 -1671 -1228
-2204 -432 -324 -906 -520 -1458 -603 -186 -27 -629 -25 -825 6 -376 57 -646
140 -955 291 -257 126 -475 272 -715 480 -129 112 -210 167 -257 176 -19 4
-60 1 -91 -6 -47 -10 -65 -21 -113 -69 -61 -61 -79 -102 -79 -180 0 -72 31
-119 163 -248 470 -459 1102 -778 1823 -917 243 -47 585 -65 889 -47 271 16
464 50 728 125 1320 379 2299 1442 2567 2786 46 233 55 337 55 685 0 358 -9
456 -61 705 -234 1124 -937 2031 -1967 2536 -402 197 -781 306 -1197 344 -159
14 -573 20 -700 10z"/>
<path d="M4495 6301 c-55 -25 -122 -100 -132 -148 -10 -50 -10 -2216 0 -2266
10 -46 77 -123 127 -146 31 -14 148 -16 1046 -19 l1011 -3 55 50 c72 66 102
133 95 211 -8 92 -55 163 -137 206 -33 18 -78 19 -871 22 l-836 3 -5 72 c-3
40 -5 432 -6 872 -2 808 -6 964 -23 1021 -12 40 -73 102 -124 125 -53 24 -147
25 -200 0z"/>
</g>
</svg>
