<?xml version="1.0" standalone="no"?>
<!DOCTYPE svg PUBLIC "-//W3C//DTD SVG 20010904//EN"
 "http://www.w3.org/TR/2001/REC-SVG-20010904/DTD/svg10.dtd">
<svg version="1.0" xmlns="http://www.w3.org/2000/svg"
 width="512.000000pt" height="512.000000pt" viewBox="0 0 512.000000 512.000000"
 preserveAspectRatio="xMidYMid meet">

<g transform="translate(0.000000,512.000000) scale(0.100000,-0.100000)"
fill="#000000" stroke="none">
<path d="M319 4466 c-151 -42 -276 -173 -308 -326 -9 -41 -11 -395 -9 -1400
l3 -1345 22 -53 c49 -119 155 -218 274 -255 50 -16 203 -17 2065 -15 l2010 3
75 37 c93 46 158 112 202 206 l32 67 0 1390 0 1390 -34 69 c-37 77 -102 148
-171 189 -104 60 23 57 -2140 56 -1564 -1 -1985 -3 -2021 -13z m4056 -231 c36
-22 57 -45 77 -84 l28 -53 0 -1315 c0 -1012 -3 -1325 -12 -1357 -16 -53 -81
-118 -134 -134 -32 -9 -478 -12 -1997 -12 l-1955 0 -53 28 c-39 20 -62 41 -84
77 l-30 48 -3 1306 c-2 967 0 1320 8 1360 10 43 22 64 59 101 30 30 62 51 87
58 27 7 660 10 2000 9 l1961 -2 48 -30z"/>
<path d="M1544 3821 c-17 -11 -36 -34 -43 -52 -8 -23 -11 -305 -11 -996 0
-1037 -1 -1010 51 -1047 55 -38 45 -43 966 475 480 270 880 500 888 512 18 25
20 76 4 109 -5 13 -29 35 -52 50 -50 31 -1627 917 -1686 947 -50 26 -77 26
-117 2z m859 -662 c368 -206 669 -380 670 -385 0 -7 -1007 -581 -1315 -749
l-48 -26 0 776 c0 618 3 775 13 768 6 -4 313 -177 680 -384z"/>
<path d="M4958 3823 c-14 -9 -31 -27 -37 -40 -8 -17 -11 -432 -11 -1374 0
-1001 -3 -1362 -12 -1397 -16 -64 -86 -134 -150 -150 -35 -9 -546 -12 -2037
-12 -1445 0 -1997 -3 -2015 -11 -60 -28 -71 -122 -20 -170 l26 -24 2006 -3
c1468 -2 2023 0 2067 8 165 32 304 171 335 335 8 43 10 439 8 1427 l-3 1368
-26 26 c-33 33 -94 41 -131 17z"/>
</g>
</svg>
