<!DOCTYPE svg PUBLIC "-//W3C//DTD SVG 1.1//EN" "http://www.w3.org/Graphics/SVG/1.1/DTD/svg11.dtd">
<!-- Uploaded to: SVG Repo, www.svgrepo.com, Transformed by: SVG Repo Mixer Tools -->
<svg fill="#000000" width="256px" height="256px" viewBox="0 0 24 24" xmlns="http://www.w3.org/2000/svg" stroke="#000000" stroke-width="0.00024000000000000003">
<g id="SVGRepo_bgCarrier" stroke-width="0"/>
<g id="SVGRepo_tracerCarrier" stroke-linecap="round" stroke-linejoin="round" stroke="#CCCCCC" stroke-width="0.576"/>
<g id="SVGRepo_iconCarrier">
<path d="M8,7,2,11V3ZM3,14.5H21a1,1,0,0,0,0-2H3a1,1,0,0,0,0,2ZM10,7a1,1,0,0,0,1,1H21a1,1,0,0,0,0-2H11A1,1,0,0,0,10,7ZM3,21H21a1,1,0,0,0,0-2H3a1,1,0,0,0,0,2Z"/>
</g>
</svg>