<!DOCTYPE svg PUBLIC "-//W3C//DTD SVG 1.1//EN" "http://www.w3.org/Graphics/SVG/1.1/DTD/svg11.dtd">
<!-- Uploaded to: SVG Repo, www.svgrepo.com, Transformed by: SVG Repo Mixer Tools -->
<svg width="256px" height="256px" viewBox="0 0 1024 1024" xmlns="http://www.w3.org/2000/svg" fill="#000000">
<g id="SVGRepo_bgCarrier" stroke-width="0"/>
<g id="SVGRepo_tracerCarrier" stroke-linecap="round" stroke-linejoin="round"/>
<g id="SVGRepo_iconCarrier">
<path fill="#000000" d="M512 64a448 448 0 1 1 0 896 448 448 0 0 1 0-896zm0 832a384 384 0 0 0 0-768 384 384 0 0 0 0 768zm-48-247.616L668.608 512 464 375.616v272.768zm10.624-342.656 249.472 166.336a48 48 0 0 1 0 79.872L474.624 718.272A48 48 0 0 1 400 678.336V345.6a48 48 0 0 1 74.624-39.936z"/>
</g>
</svg>