<?xml version="1.0" encoding="utf-8"?>
<!-- Uploaded to: SVG Repo, www.svgrepo.com, Generator: SVG Repo Mixer Tools -->
<svg fill="#e02117" width="800px" height="800px" viewBox="0 0 32 32" version="1.1" xmlns="http://www.w3.org/2000/svg">
<title>youtubestudio</title>
<path d="M13.005 20.499v-8.997l7.498 4.499zM27.146 17.47c0.063-0.438 0.101-0.947 0.105-1.464l0-0.005c-0.004-0.522-0.042-1.032-0.112-1.531l0.007 0.061 3.164-2.474c0.171-0.14 0.279-0.35 0.279-0.586 0-0.137-0.037-0.266-0.101-0.377l0.002 0.004-2.999-5.188c-0.133-0.227-0.375-0.377-0.653-0.377-0.094 0-0.184 0.017-0.267 0.049l0.005-0.002-3.734 1.5c-0.731-0.572-1.566-1.065-2.462-1.443l-0.072-0.027-0.57-3.974c-0.051-0.358-0.356-0.63-0.724-0.63-0.004 0-0.008 0-0.011 0h-5.998c-0.003-0-0.007-0-0.011-0-0.368 0-0.673 0.272-0.724 0.626l-0 0.004-0.57 3.974c-0.967 0.412-1.802 0.904-2.561 1.49l0.027-0.020-3.734-1.5c-0.081-0.033-0.174-0.053-0.272-0.053-0.276 0-0.516 0.153-0.641 0.379l-0.002 0.004-2.999 5.189c-0.065 0.108-0.103 0.238-0.103 0.377 0 0.236 0.11 0.446 0.282 0.581l0.002 0.001 3.164 2.474c-0.062 0.437-0.1 0.946-0.105 1.464l-0 0.006c0.005 0.523 0.043 1.032 0.112 1.532l-0.007-0.062-3.164 2.474c-0.171 0.14-0.279 0.35-0.279 0.586 0 0.137 0.037 0.266 0.101 0.377l-0.002-0.004 2.999 5.188c0.133 0.227 0.375 0.377 0.653 0.377 0.094 0 0.184-0.017 0.267-0.049l-0.005 0.002 3.734-1.5c0.731 0.572 1.566 1.065 2.462 1.443l0.072 0.027 0.57 3.974c0.051 0.358 0.356 0.63 0.724 0.63 0.004 0 0.008-0 0.011-0h5.998c0.003 0 0.007 0 0.011 0 0.368 0 0.673-0.272 0.724-0.626l0-0.004 0.57-3.974c0.968-0.412 1.802-0.904 2.561-1.489l-0.027 0.020 3.734 1.5c0.081 0.033 0.174 0.052 0.272 0.052 0.276 0 0.516-0.153 0.641-0.379l0.002-0.004 2.999-5.189c0.062-0.107 0.099-0.236 0.099-0.373 0-0.236-0.108-0.447-0.277-0.585l-0.001-0.001z"></path>
</svg>