<svg id="Layer_1" data-name="Layer 1" xmlns="http://www.w3.org/2000/svg" viewBox="0 0 500 407.03"><defs><style>.cls-1{fill:red;}.cls-2{fill:#282828;}.cls-3{fill:#fff;}</style></defs><path id="Path" class="cls-1" d="M741.79,527.69c-.31-24.1-14-138.22-20.55-156C717,360.28,708,339.41,691.35,326.68,670,310.4,652.66,307.45,630.49,307c-15.45-.32-264.18,31.78-294.3,43.06-22.47,8.41-40.12,19.23-54,33.14-22.52,22.65-26.85,44.65-23.28,83.35,3.26,35,19.39,151.4,27.44,175.45,8.89,26.6,25.24,47,52.23,49.93,82.34,9,101.77-37,293.22-36.6,58,.13,86.82-25.65,98.83-48.11,14-26.41,11.35-61.15,11.13-79.52Z" transform="translate(-250 -296.49)"/><path id="Shape" class="cls-2" d="M624.28,315.81h.23c21.18.41,37.75,3.27,58.08,18.78,15.91,12.14,24.48,32.05,28.51,43,6.25,16.92,19.3,125.81,19.61,148.82.22,17.5,2.81,50.69-10.63,75.88-11.4,21.37-38.83,45.88-93.87,45.88H623.3c-164.19,0-194.4,36-257.53,36a188.86,188.86,0,0,1-19.7-1.09c-25.74-2.82-41.33-22.28-49.82-47.65-7.68-23-23.05-134-26.18-167.41-3.44-36.92.71-57.93,22.2-79.53,13.18-13.27,30-23.59,51.52-31.6,28.5-10.73,263.74-41.1,280.49-41.1Zm0-19.32c-10.63,0-80.15,8.64-138.37,16.68S354.6,332.22,337.18,338.73c-24,9-43.12,20.78-58.27,36-27.87,28-31.27,57.15-27.79,95.12,2.73,29.41,18.23,145.31,27.12,171.82,12,35.78,35.3,57.29,65.73,60.6a198.85,198.85,0,0,0,21.76,1.23c26.67,0,47.8-5.77,72.29-12.46,38.51-10.5,86.41-23.55,185.28-23.55h2.91c24.21,0,83.5-5.45,110.49-56,14.43-27,13.58-59.79,13.09-79.38,0-2.19-.09-4.19-.14-6-.31-23.37-13.45-135.31-20.82-155.36-8.53-23.14-20.28-40.51-34.89-51.65-23.82-18.19-44.06-22.14-69-22.64h-.63Z" transform="translate(-250 -296.49)"/><path id="Path-2" data-name="Path" class="cls-3" d="M574.47,496.41c-.63.36-1.25.77-1.84,1.13q-7.23,4.92-14.38,9.92c-11.08,7.68-75.6,52.33-75.6,52.33-5.49,4.23-15.82,10.87-19.75,8.77S457.59,552,456.65,545l-.23-1.54c-1.16-8.41-10.45-88.53-11.52-97.35-.32-2.5-1.83-11.64,1-13.73,3-2.23,10.59.32,13.14,1.14,14.87,4.77,89.4,31.19,112.59,43.05a21,21,0,0,0,2.19,1c3.3,1.41,7.86,3.37,8,9,0,5.36-4,7.82-7.28,9.82Z" transform="translate(-250 -296.49)"/><path id="Shape-2" data-name="Shape" class="cls-2" d="M455.31,444.21c25.87,8.87,85.74,30.46,113.93,43.2-3.4,2.31-6.79,4.68-10.19,7l-89.49,62-.4.27-.36.27s0,0,0,0c-.09-.64-.14-1.19-.23-1.69l-.4-3.09-.27-1.91c-1-7.09-7.15-59.74-10.81-91.21-.67-5.72-1.25-10.86-1.74-14.91Zm-14.48-23.78a6.84,6.84,0,0,0-4.15,1.05c-3.35,2.45-1.52,13.32-1.17,16.27,1.26,10.42,12.29,105.35,13.63,115.31l.23,1.82c1.11,8.32,2.72,25.42,7.41,27.92a5.06,5.06,0,0,0,2.24.5c5.58,0,15.54-6.51,21.17-10.87l89.54-62c5.68-4,11.35-7.87,17.07-11.73.71-.46,1.43-.91,2.19-1.37,3.88-2.36,8.67-5.32,8.58-11.64-.14-6.64-5.5-9-9.43-10.64-.9-.36-1.74-.77-2.55-1.18-27.43-14-115.72-45.33-133.32-51-2.23-.73-7.37-2.46-11.44-2.46Z" transform="translate(-250 -296.49)"/></svg>